<svg width="17" height="17" viewBox="0 0 17 17" fill="none" xmlns="http://www.w3.org/2000/svg">
<g clip-path="url(#clip0_336_163)">
<path d="M7.99585 0.25504C10.1165 0.187397 12.1772 0.964952 13.7245 2.41665C15.2719 3.86835 16.1792 5.87527 16.2468 7.99593C16.3145 10.1166 15.5369 12.1772 14.0852 13.7246C12.6335 15.272 10.6266 16.1793 8.50594 16.2469C6.38529 16.3145 4.32462 15.537 2.77726 14.0853C1.2299 12.6336 0.322606 10.6267 0.254964 8.50602C0.187321 6.38537 0.964876 4.3247 2.41657 2.77734C3.86827 1.22998 5.8752 0.322682 7.99585 0.25504ZM4.73674 7.86281C4.60419 7.86704 4.47876 7.92374 4.38803 8.02045C4.2973 8.11716 4.2487 8.24596 4.25293 8.3785C4.25716 8.51104 4.31386 8.63647 4.41057 8.7272C4.50728 8.81793 4.63608 8.86653 4.76862 8.8623L10.5587 8.67762L8.48118 10.891C8.39033 10.9878 8.34167 11.1168 8.34591 11.2495C8.35014 11.3822 8.40692 11.5078 8.50375 11.5986C8.60058 11.6895 8.72954 11.7381 8.86225 11.7339C8.99495 11.7297 9.12055 11.6729 9.21139 11.576L12.1142 8.48193C12.1593 8.43402 12.1944 8.37769 12.2177 8.31618C12.241 8.25466 12.2519 8.18916 12.2498 8.12342C12.2477 8.05769 12.2326 7.99301 12.2055 7.9331C12.1784 7.87319 12.1397 7.81922 12.0917 7.77428L8.99754 4.87145C8.9007 4.78061 8.77175 4.73195 8.63904 4.73618C8.50633 4.74041 8.38074 4.79719 8.28989 4.89402C8.19905 4.99086 8.15039 5.11981 8.15462 5.25252C8.15886 5.38523 8.21563 5.51082 8.31247 5.60166L10.5268 7.67812L4.73674 7.86281Z" fill="white"/>
</g>
<defs>
<clipPath id="clip0_336_163">
<rect width="16" height="16" fill="white" transform="translate(0.51001 16.502) rotate(-91.8269)"/>
</clipPath>
</defs>
</svg>
