<svg width="13" height="14" viewBox="0 0 13 14" fill="none" xmlns="http://www.w3.org/2000/svg">
<path d="M1 0.933333C0.734784 0.933333 0.48043 1.03167 0.292893 1.2067C0.105357 1.38173 0 1.61913 0 1.86667V2.8C0 3.04754 0.105357 3.28493 0.292893 3.45997C0.48043 3.635 0.734784 3.73333 1 3.73333H1.5V12.1333C1.5 12.6284 1.71071 13.1032 2.08579 13.4533C2.46086 13.8033 2.96957 14 3.5 14H9.5C10.0304 14 10.5391 13.8033 10.9142 13.4533C11.2893 13.1032 11.5 12.6284 11.5 12.1333V3.73333H12C12.2652 3.73333 12.5196 3.635 12.7071 3.45997C12.8946 3.28493 13 3.04754 13 2.8V1.86667C13 1.61913 12.8946 1.38173 12.7071 1.2067C12.5196 1.03167 12.2652 0.933333 12 0.933333H8.5C8.5 0.685798 8.39464 0.448401 8.20711 0.273367C8.01957 0.0983331 7.76522 0 7.5 0L5.5 0C5.23478 0 4.98043 0.0983331 4.79289 0.273367C4.60536 0.448401 4.5 0.685798 4.5 0.933333H1ZM4 4.66667C4.13261 4.66667 4.25979 4.71583 4.35355 4.80335C4.44732 4.89087 4.5 5.00957 4.5 5.13333C4.5 7.68476 4.5 9.11524 4.5 11.6667C4.5 11.7904 4.44732 11.9091 4.35355 11.9967C4.25979 12.0842 4.13261 12.1333 4 12.1333C3.86739 12.1333 3.74022 12.0842 3.64645 11.9967C3.55268 11.9091 3.5 11.7904 3.5 11.6667V5.13333C3.5 5.00957 3.55268 4.89087 3.64645 4.80335C3.74022 4.71583 3.86739 4.66667 4 4.66667ZM6.5 4.66667C6.63261 4.66667 6.75979 4.71583 6.85355 4.80335C6.94732 4.89087 7 5.00957 7 5.13333V11.6667C7 11.7904 6.94732 11.9091 6.85355 11.9967C6.75979 12.0842 6.63261 12.1333 6.5 12.1333C6.36739 12.1333 6.24022 12.0842 6.14645 11.9967C6.05268 11.9091 6 11.7904 6 11.6667V5.13333C6 5.00957 6.05268 4.89087 6.14645 4.80335C6.24022 4.71583 6.36739 4.66667 6.5 4.66667ZM9.5 5.13333V11.6667C9.5 11.7904 9.44732 11.9091 9.35355 11.9967C9.25979 12.0842 9.13261 12.1333 9 12.1333C8.86739 12.1333 8.74021 12.0842 8.64645 11.9967C8.55268 11.9091 8.5 11.7904 8.5 11.6667V5.13333C8.5 5.00957 8.55268 4.89087 8.64645 4.80335C8.74021 4.71583 8.86739 4.66667 9 4.66667C9.13261 4.66667 9.25979 4.71583 9.35355 4.80335C9.44732 4.89087 9.5 5.00957 9.5 5.13333Z" fill="white"/>
</svg>
