<svg width="15" height="22" viewBox="0 0 15 22" fill="none" xmlns="http://www.w3.org/2000/svg">
<path d="M0.3125 21.5H14.6875V17.75C14.686 16.3581 14.1554 15.0237 13.2122 14.0394C12.269 13.0552 10.9902 12.5016 9.65625 12.5H5.34375C4.00985 12.5016 2.73101 13.0552 1.7878 14.0394C0.844587 15.0237 0.314022 16.3581 0.3125 17.75V21.5ZM2.46875 5.75C2.46875 6.78835 2.76383 7.80339 3.31667 8.66674C3.86951 9.5301 4.65528 10.203 5.57462 10.6004C6.49396 10.9977 7.50558 11.1017 8.48155 10.8991C9.45752 10.6966 10.354 10.1965 11.0576 9.46231C11.7613 8.72808 12.2404 7.79262 12.4346 6.77422C12.6287 5.75582 12.5291 4.70022 12.1483 3.74091C11.7675 2.7816 11.1226 1.96166 10.2952 1.38478C9.46783 0.807907 8.49509 0.5 7.5 0.5C6.16563 0.5 4.88591 1.05312 3.94237 2.03769C2.99883 3.02226 2.46875 4.35761 2.46875 5.75Z" fill="white"/>
</svg>
